<svg width="69" height="50" viewBox="0 0 69 50" fill="none" xmlns="http://www.w3.org/2000/svg">
<path d="M29.2594 34.4693C28.2607 34.4693 27.3633 33.8593 26.9959 32.9307L25.5358 29.2407C25.1683 28.312 24.271 27.702 23.2723 27.702H13.2755C12.2601 27.702 11.3514 28.3323 10.9956 29.2834L9.64708 32.888C9.2913 33.839 8.38254 34.4693 7.36713 34.4693H3.66094C1.92139 34.4693 0.743257 32.6975 1.41618 31.0934L13.8335 1.49262C14.2128 0.588368 15.0976 0 16.0782 0H20.9164C21.9002 0 22.7873 0.592157 23.1646 1.50072L35.4564 31.1015C36.1221 32.7046 34.9441 34.4693 33.2083 34.4693H29.2594ZM20.6176 15.4509C19.8454 13.3186 16.8337 13.3077 16.046 15.4343L15.1875 17.7524C14.5986 19.3423 15.7748 21.0321 17.4702 21.0321H19.1682C20.8562 21.0321 22.0318 19.3561 21.457 17.769L20.6176 15.4509Z" fill="#647B64"/>
<path d="M68.9874 36.076C68.9874 38.1532 68.6303 40.0519 67.9163 41.7722C67.2347 43.4599 66.2447 44.9205 64.9465 46.1538C63.6482 47.3548 62.074 48.296 60.224 48.9776C58.4064 49.6592 56.3778 50 54.1383 50C51.8663 50 49.8215 49.6592 48.0039 48.9776C46.1863 48.296 44.6446 47.3548 43.3788 46.1538C42.113 44.9205 41.1392 43.4599 40.4576 41.7722C39.7761 40.0519 39.4353 38.1532 39.4353 36.076V25.9495C39.4353 24.605 38.3454 23.5152 37.001 23.5152H36.8549H29.2981C28.21 23.5152 27.254 22.7931 26.9566 21.7464L25.808 17.7054C25.3662 16.1511 26.5337 14.6056 28.1495 14.6056H45.2775C46.6219 14.6056 47.7118 15.6955 47.7118 17.0399V35.3944C47.7118 36.3356 47.8254 37.2282 48.0526 38.0721C48.3122 38.9159 48.6855 39.6787 49.1724 40.3603C49.6917 41.0094 50.357 41.5287 51.1685 41.9182C52.0123 42.3077 53.0185 42.5024 54.187 42.5024C55.3554 42.5024 56.3453 42.3077 57.1568 41.9182C58.0007 41.5287 58.6823 41.0094 59.2016 40.3603C59.7209 39.6787 60.0941 38.9159 60.3213 38.0721C60.5485 37.2282 60.6621 36.3356 60.6621 35.3944V17.0399C60.6621 15.6955 61.752 14.6056 63.0964 14.6056H66.5531C67.8975 14.6056 68.9874 15.6955 68.9874 17.0399V36.076Z" fill="#647B64"/>
</svg>
